<?xml version="1.0" encoding="utf-8"?>
<!-- Generator: Adobe Illustrator 21.1.0, SVG Export Plug-In . SVG Version: 6.00 Build 0)  -->
<svg version="1.1" id="Layer_1" xmlns="http://www.w3.org/2000/svg" xmlns:xlink="http://www.w3.org/1999/xlink" x="0px" y="0px"
	 viewBox="0 0 500 500" style="enable-background:new 0 0 500 500;" xml:space="preserve">
<style type="text/css">
	.st0{opacity:0.35;}
	.st1{fill:#FFFFFF;}
	.st2{fill:#838383;}
	.st3{clip-path:url(#SVGID_2_);fill:none;stroke:#000000;stroke-width:0.6773;stroke-miterlimit:10;}
	.st4{fill:#AD1F2C;}
	.st5{fill:none;stroke:#000000;stroke-width:0.6773;stroke-miterlimit:10;}
	.st6{clip-path:url(#SVGID_4_);fill:none;stroke:#000000;stroke-width:0.6773;stroke-miterlimit:10;}
	.st7{clip-path:url(#SVGID_6_);fill:none;stroke:#000000;stroke-width:0.6773;stroke-miterlimit:10;}
</style>
<g>
	<g>
		<path class="st2" d="M147.7,379l43.1-6.2c0.6,0-0.6,0,0,0l-34.7-19.1L147.7,379z"/>
	</g>
	<polygon class="st2" points="323,320.6 310.4,360.5 338.3,352.2 348.8,318.8 	"/>
	<polygon class="st2" points="367.1,177.8 376.9,146.2 355.5,132.3 343.6,170.7 	"/>
	<g>
		<path class="st2" d="M253,143.4l20.6,6.1l0.3-28.5l-36.2,7.3l-4.9,9C232.8,137.3,247.2,141.8,253,143.4"/>
		<path class="st2" d="M114.5,244l9-28.6l-23.1-6.2C98,217,91.6,236,89.1,243.9L114.5,244z"/>
	</g>
	<polygon class="st2" points="71.8,201.8 48.5,195.6 41.9,217.3 60.9,237.3 	"/>
	<g>
		<path class="st2" d="M419.6,335.4c1.2,9.9-9.4,21.3-19.7,21.3c-5.7,0-8.6-4.5-8.6-9.8c0.2-3.9,1.5-8.9,3.5-12.3h-0.2h-25.8
			c-2,5.2-3.7,11.1-3.7,16.7c0,19.1,16.7,23.9,32.5,23.9c16.5,0,30.2-3.2,38.8-18.6c3.9-6.9,8.2-16.9,7.9-25
			c-0.4-10-3.2-13.3-9-19.5l-30.6,2.1C413.3,319.7,418.5,326.4,419.6,335.4"/>
	</g>
	<polygon points="41.7,123.7 35.5,143.4 64.7,143.4 50.3,189.3 73.6,195.5 89.8,143.3 115.1,143.3 121.3,123.6 	"/>
	<g>
		<path d="M130,194.2c2.9-0.2,5.7-0.2,8.6-0.2c4.7,0,11.8,0.3,11.8,6.9c0,4.6-1.7,10.3-3,14.7c-2.5,8.9-5.6,17.9-6,27l26.1,0
			c-0.7-14.7,8.4-27.5,8.4-42c0-9.8-7.4-13.7-16-15.2l2.5-0.3c18.7-2.5,29.2-17.2,29.1-35.6c0-20.4-17.1-26.1-34.4-26.1l-30,0
			c-8.5,26.5-16.6,53.1-24.9,79.7l23.1,6.2L130,194.2z M146.1,142.1l8.4,0c6.2,0,12.5,1.5,12.5,8.9c0,9.1-6.6,24.5-17.3,24.5
			l-13.8,0L146.1,142.1z"/>
		<path d="M247.9,198.5h-0.2l-24.3,0c8.7-16.5,17.1-33.2,24.6-50.2l-17.4-5.3l-56.3,99.9l26.3,0l13.5-25.5l32.2,0l-1,25.6l25.3,0
			l2-87.3l-21.7-6.6C249,165.6,247.9,182.1,247.9,198.5"/>
	</g>
	<polygon points="320.5,242.8 379.8,242.8 386.2,223.4 352.3,223.4 364.9,183.7 341.4,176.6 	"/>
	<g>
		<path d="M252.7,274c0-18.1-14-23.6-29.9-23.6h-33.2L158.4,348l39.7,21.6c23.8-0.9,40.4-18.5,40.4-42.6c0-9.3-5.7-16.5-14.7-19.1
			C241.4,303.9,252.7,292.6,252.7,274 M209.1,344c-4.7,7.1-9.8,7.6-17.7,7.6h-10.3l11.3-35.1c8.3,0.3,22.9-1.7,22.9,10.5
			C215.4,332.4,212.2,339.6,209.1,344 M207.1,299.5h-9.4l9.9-30.9c7.4,0.3,21.4-2,21.4,9.4C229.2,291.5,220.6,299.5,207.1,299.5"/>
		<path d="M303.2,165.1L278,249.4l-22.3,68.4l26.7-2.1l19.3-60.8l0,0l26.1-82.4C324.3,171.5,309.8,166.9,303.2,165.1"/>
	</g>
	<polygon points="363.8,270.3 389.1,270.3 395.3,250.6 315.7,250.6 309.5,270.3 338.7,270.3 325,314.2 350.5,312.4 	"/>
	<g>
		<path d="M460.6,288.2c1.5-3.5,3.9-11.6,3.9-15.4c0-18.4-17.9-23.4-33.1-23.4c-26.1,0-41.7,18.2-41.7,43.5c0,3.7,3.3,12.7,10,15.8
			l31.4-2.1c-5.3-4.5-14.8-15.2-14.8-20.8c0-7.8,4.3-17.9,13.3-17.9c6.1,0,9.8,1.7,9.8,8.3c0,4.2-2,8.1-3.2,12.1H460.6z"/>
		<path d="M143.3,251.1c-11.9,0-13.6,8.8-16.5,18.1c-1,3.4-2.8,7.4-2.8,11c0,6.8,6,8.1,11.6,8.1c6.8,0,10.4-2.2,12.9-8.6
			c1.7-4.4,5.9-16.4,5.9-20.7C154.3,252.9,148.2,251.1,143.3,251.1 M146.6,259.7c0,1.5-1.7,6.4-2.3,8.1l-2.6,8.2
			c-1,3.1-2.3,6.7-6.2,6.7c-2.2,0-3.7-1.3-3.7-3.6c0-3,2.3-8.6,3.3-11.7c1-3.1,2.3-9.3,5.7-10.4c0.8-0.3,1.6-0.4,2.4-0.4
			C144.8,256.6,146.6,258,146.6,259.7L146.6,259.7z"/>
	</g>
	<polygon points="178.6,257.2 180.5,251.2 161.7,251.2 150.4,287.8 158.3,287.8 163.2,272 173.5,272 175.3,266.1 165,266.1 
		167.8,257.2 	"/>
	<g>
		<g>
			<path d="M-4.8,270.8c0.3,0.3,0.7,0.7,1,1c0.9,0.9,2.6,1,3.5,0c0.9-1,1-2.5,0-3.5c-0.3-0.3-0.7-0.7-1-1c-0.9-0.9-2.6-1-3.5,0
				C-5.7,268.2-5.8,269.8-4.8,270.8L-4.8,270.8z"/>
		</g>
	</g>
</g>
</svg>
