<?xml version="1.0" encoding="utf-8"?>
<!-- Generator: Adobe Illustrator 25.4.1, SVG Export Plug-In . SVG Version: 6.00 Build 0)  -->
<svg version="1.1" id="Capa_1" xmlns="http://www.w3.org/2000/svg" xmlns:xlink="http://www.w3.org/1999/xlink" x="0px" y="0px"
	 viewBox="0 0 621.2 190.5" style="enable-background:new 0 0 621.2 190.5;" xml:space="preserve">
<style type="text/css">
	.st0{fill:#22428E;}
	.st1{fill:#E72D53;}
</style>
<g>
	<path class="st0" d="M80.3,123.8h17.4V40.5H81.7v60l-35.1-60H28.4v83.3h15.9v-61L80.3,123.8z"/>
</g>
<g>
	<path class="st0" d="M138.4,60.8c-9.2,0-16.8,2.9-22.6,8.5c-5.8,5.6-8.7,13.9-8.7,24.5c0,11.3,3.2,19.6,9.6,24.6
		c6.4,5,13.9,7.6,22.3,7.6c10.1,0,18.1-3,23.7-8.9c3.4-3.5,5.4-7.1,6-10.5h-16.3c-1,1.8-2.1,3.2-3.4,4.2c-2.5,2-5.7,3-9.6,3
		c-3.7,0-6.9-0.8-9.5-2.4c-4.3-2.6-6.6-7.1-6.9-13.5l0-0.5h46.7c0.1-5.1-0.1-9.1-0.6-11.8c-0.8-4.8-2.5-9.1-5-12.7
		c-2.8-4.1-6.5-7.2-10.9-9.1C148.8,61.8,143.8,60.8,138.4,60.8z M153.2,87.4h-29.9l0.1-0.5c0.6-4.1,2.2-7.5,4.6-9.9l0,0
		c2.4-2.5,5.9-3.7,10.3-3.7c4,0,7.5,1.2,10.2,3.5c2.8,2.3,4.3,5.7,4.6,10.2L153.2,87.4z"/>
</g>
<g>
	<path class="st0" d="M179,62.4v37.1c0,7,0.9,12.4,2.7,16c3.2,6.4,9.5,9.7,18.7,9.7c3.2,0,6-0.4,8.4-1.2c2.4-0.8,4.9-2.4,7.4-4.6
		c0.8-0.7,1.5-1.5,2.1-2.4c0.6-1,1-1.5,1.2-1.8l0.8-1v9.6h15.3V62.4h-16.1v33.4c0,4-0.6,7.4-1.7,9.8c-2.2,4.7-6.3,7-12.1,7
		c-4.6,0-7.8-1.7-9.4-5c-0.9-1.8-1.3-4.6-1.3-8.2V62.4H179z"/>
</g>
<g>
	<path class="st0" d="M248.7,123.8h15.9V94.5c0-5,0.7-8.8,2-11.3c2.4-4.4,7.1-6.6,14-6.6c0.5,0,1.2,0,2,0.1c0.7,0,1.5,0.1,2.3,0.2
		V61c-0.5,0-0.8,0-1-0.1c-0.2,0-0.5,0-0.8,0c-4.9,0-8.9,1.3-11.9,3.7c-1.9,1.5-4.1,4.3-6.7,8.4l-0.9,1.4v-12h-15.1V123.8z"/>
</g>
<g>
	<path class="st0" d="M360.1,123.8H376V40.5h-15.8V123.8z"/>
</g>
<g>
	<path class="st0" d="M483.4,60.4c-10.8,0-19,3.3-24.3,9.7c-5.3,6.5-8,14.2-8,23.1c0,9,2.7,16.8,8,23.1c5.3,6.3,13.4,9.6,24.3,9.6
		s19-3.2,24.3-9.6c5.3-6.4,8-14.2,8-23.1c0-8.8-2.7-16.6-8-23.1C502.4,63.7,494.3,60.4,483.4,60.4z M483.4,113.2
		c-5,0-8.9-1.8-11.7-5.3c-2.7-3.5-4.1-8.4-4.1-14.7c0-6.3,1.4-11.3,4.1-14.7c2.7-3.5,6.6-5.2,11.7-5.2s8.9,1.8,11.6,5.2
		c2.7,3.4,4,8.4,4,14.7c0,6.3-1.4,11.3-4,14.7v0C492.3,111.4,488.4,113.2,483.4,113.2z"/>
</g>
<g>
	<path class="st0" d="M530.5,123.8h15.7V73.6h11V63h-11v-5.7c0-1.3,0.5-2.5,1.4-3.6c0.9-1.1,2.6-1.7,4.9-1.6c1.9,0,3.3,0.1,4.3,0.2
		V40c-1.3-0.1-2.3-0.2-3.1-0.2l0,0c-0.9-0.1-1.8-0.1-2.8-0.1c-9.1,0-14.8,1.8-17.2,5.4c-2.3,2.5-3.4,7-3.4,13.5V63h-9.2v10.6h9.4
		V123.8z"/>
</g>
<g>
	<path class="st0" d="M565.5,73.7h8.9v38.8c0,3.7,0.9,6.5,2.7,8.3c2.8,2.8,8.1,4.1,15.9,3.9l7.5-0.3v-11.2c-0.4,0-0.8,0-1.2,0.1
		c-0.6,0-1.1,0-1.6,0c-4.7,0-5.9-0.6-6.4-1.1c-0.8-0.7-1.1-2.4-1.1-5.1V73.7h10.4V63h-10.4V45.6h-15.6V63h-8.9V73.7z"/>
</g>
<g>
	<path class="st1" d="M441,87.2c-0.6,0-1.1-0.3-1.5-0.7c-9.9-13.2-23.1-15.3-36.8-16.4c-14.1-1.2-19-10.6-18.9-16.3
		c0.4-14.3,14.1-27.7,33.3-32.6c4.7-1.3,11.4-2.2,15.2-2.1c1,0,1.6,0.7,1.6,1.4c0,0.7-0.4,1.5-1.5,1.7c-2,0.4-4.3,0.8-6.5,1.3
		c-10.5,3.6-27.9,11.9-25.7,26.7c0.5,3.5,6,9.5,12.5,10.6c16.7,2.8,28.8,12.6,30.1,24.4c0.1,0.8-0.4,1.6-1.2,2
		C441.5,87.2,441.3,87.2,441,87.2z"/>
</g>
<g>
	<path class="st1" d="M367.9,169.1c-8.6,0-16.7-2-23.2-5.8c-6.2-3.6-10.3-8.6-11-13.3c-0.7-5,1.8-15.8,11.3-19.2l1.2-0.5l0,2.9
		l-0.3,0.3c-0.1,0.1-0.2,0.2-0.3,0.2c-6.9,4.8-7.1,12.3-4.7,15.8c5.7,8.3,26.9,11,46.5,5.8c13.1-3.4,44-15.5,47.3-52.8
		c0.2-2.4,0-7.2-2.5-12.2c-0.4-0.8-0.2-1.7,0.5-2.2c0.6-0.4,1.4-0.4,1.9,0.2c3.9,4.1,5.9,8.4,6.2,13.9v0c1,15.4-4,29.7-14.5,41.4
		c-13.1,14.6-34.5,24.3-55.8,25.3C369.6,169,368.8,169.1,367.9,169.1z"/>
</g>
<path class="st0" d="M346,77.9c-0.4-6.2-3.1-10.6-7.9-13c-5.4-2.7-11.6-4-18.6-4c-10.6,0-18.2,2.7-22.5,8.1
	c-2.6,3.3-4.2,7.6-4.6,12.7h15.3c0.4-2.3,1.2-4.2,2.4-5.6c1.8-2,4.7-3,8.9-3c3.6,0,6.4,0.5,8.3,1.5c2,1.1,3,3,3,5.7
	c0,2.3-1.3,4-3.9,5.1c-1.4,0.6-3.6,1.1-6.8,1.5l-5.7,0.7c-6.4,0.8-11.3,2.1-14.6,3.9c-5.9,3.3-8.9,8.8-8.9,16.2
	c0,5.7,1.9,10.2,5.5,13.3c3.7,3.1,8.5,4.7,14.1,4.7c4.5,0,8.5-1,12.1-3c3-1.7,5.6-3.8,7.9-6.1l0.7-0.7l0.1,1
	c0.1,1.4,0.3,2.6,0.5,3.7c0.2,1,0.5,2,0.9,3.2H346V77.9z M330.3,100c-0.1,5.6-1.8,9.5-5,11.6c-3.1,2.1-6.6,3.2-10.4,3.2
	c-2.4,0-4.5-0.7-6.2-2c-1.7-1.3-2.6-3.5-2.6-6.4c0-3.3,1.4-5.7,4.2-7.3c1.6-0.9,4.2-1.7,7.8-2.3l3.8-0.7c1.9-0.3,3.4-0.7,4.4-1.1
	c1.1-0.4,2.1-0.9,3.2-1.5l0.7-0.4V100z"/>
</svg>
